<?xml version="1.0"?>
<svg xmlns="http://www.w3.org/2000/svg" xmlns:xlink="http://www.w3.org/1999/xlink" version="1.1" id="Layer_1" x="0px" y="0px" viewBox="0 0 496 496" style="enable-background:new 0 0 496 496;" xml:space="preserve" width="512px" height="512px" class=""><g><g>
	<path style="fill:#F9BA48;" d="M440,392c32,0,40-16,40-16c-112-24-232-120-232-120S128,352,16,376c0,0,8,16,40,16H440z" data-original="#F9BA48" class=""/>
	<path style="fill:#F9BA48;" d="M392,240c24,0,32-16,32-16c-80-16-176-96-176-96s-96,80-176,96c0,0,8,16,32,16H392z" data-original="#F9BA48" class=""/>
</g><g>
	<path style="fill:#F6F6F6" d="M432,400h8c35.904,0,46.112-18.328,47.16-20.424l4.616-9.232l-10.096-2.168   c-27.28-5.848-55.168-16.144-81.68-28.304V312h24c1.16,0,11.6-0.288,21.656-10.344L459.312,288H440c-0.36,0-35.664-0.304-72-20.664   V248h24c28.616,0,38.744-19.584,39.16-20.424l4.68-9.368l-10.264-2.056c-21.272-4.256-43.864-13.296-65.456-24.16   c20.624-0.072,30.632-19.584,31.04-20.416L396.944,160H384c-10.896,0-45.776-9.024-64-14.064V128h16v-16h-32V96h16   c20.704,0,30.744-19.584,31.16-20.424L356.944,64H344c-11.536,0-45.392-10.312-59.672-15C271.552,36.096,257.6,20.016,256,15.296V0   h-16v15.296c-1.6,4.72-15.552,20.8-28.328,33.712C197.392,53.688,163.544,64,152,64h-12.944l5.792,11.576   C145.256,76.416,155.296,96,176,96h16v16h-32v16h16v17.936C157.776,150.976,122.896,160,112,160H99.056l5.792,11.576   c0.416,0.832,10.424,20.352,31.056,20.416c-21.592,10.864-44.184,19.904-65.472,24.16l-10.264,2.056l4.68,9.368   C65.256,228.416,75.384,248,104,248h24v19.328C91.832,287.592,56.352,288,55.984,288l-19.24,0.064l13.6,13.592   C60.4,311.712,70.84,312,72,312h24v27.88c-26.504,12.16-54.392,22.448-81.68,28.296l-10.096,2.168l4.616,9.232   C9.888,381.672,20.096,400,56,400h8v80H8v16h480v-16h-56V400z M152,400v16h16v-16h16v16h16v-16h24v32h48v-32h24v16h16v-16h16v16h16   v-16h24v48h-24v-16h-16v16h-16v-16h-16v16h-96v-16h-16v16h-16v-16h-16v16h-24v-48H152z M240,400h16v16h-16V400z M368,464v16H128   v-16H368z M384,464h32v16h-32V464z M416,448h-32v-48h32V448z M384,332.216c-13.136-6.512-25.8-13.352-37.744-20.216H384V332.216z    M320,296v0.256c-9.08-5.68-17.456-11.152-25.024-16.256h62.96c12.6,7.32,25.104,12.472,36.408,16H320z M184,264v-16h24v16H184z    M224,248h21.192L243,249.752c-0.28,0.224-7.216,5.728-19,14.24V248z M288,264v-16h24v16H288z M272,263.984   c-11.784-8.512-18.72-14.008-19-14.232L250.808,248H272V263.984z M352,264h-24v-16h24V264z M360,176h-29.04   c-9-5.328-17.584-10.744-25.544-16h5.456c7.064,2,36.096,10.104,56.736,13.952C365.432,175.168,362.88,176,360,176z M304,144h-21.8   c-9.032-6.496-16.336-12.064-21.384-16H304V144z M261.208,48h-26.416c5.88-6.4,10.144-11.536,13.208-15.656   C251.064,36.464,255.328,41.6,261.208,48z M168.128,77.816c18.496-3.864,42.64-11.664,49.152-13.816h61.44   c6.52,2.152,30.664,9.952,49.144,13.816C325.632,79.104,323,80,320,80H176C173,80,170.368,79.104,168.128,77.816z M208,96h80v16   h-80V96z M235.176,128c-5.04,3.936-12.336,9.504-21.376,16H192v-16H235.176z M136,176c-2.88,0-5.432-0.832-7.616-2.048   C149.032,170.104,178.056,162,185.12,160h5.472c-7.96,5.256-16.536,10.672-25.536,16H136z M87.984,228.368   c67.624-18.92,140.192-74.248,160.016-90.064c19.824,15.816,92.392,71.144,160.008,90.064C404.184,230.392,398.968,232,392,232H288   h-16h-88h-16h-64C97.032,232,91.808,230.392,87.984,228.368z M168,248v16h-24v-16H168z M138.064,280h62.976   c-7.576,5.104-15.96,10.584-25.04,16.264V296h-74.352C112.952,292.472,125.464,287.32,138.064,280z M112,312h37.768   c-11.952,6.864-24.624,13.712-37.768,20.224V312z M33.36,380.04c95.928-25.704,191.712-96.256,214.64-113.888   c22.928,17.632,118.696,88.184,214.632,113.88C457.584,382.208,450.312,384,440,384H272h-48H56   C45.68,384,38.392,382.208,33.36,380.04z M112,400v48H80v-48H112z M80,464h32v16H80V464z" data-original="#333333" class="active-path" data-old_color="#F3F1F1"/>
	<path style="fill:#F6F6F6" d="M344,208h-6.536c-19.376-7.096-67.456-41.496-84.672-54.4L248,150l-4.8,3.6   c-17.216,12.904-65.28,47.304-84.672,54.4H152v16h192V208z M248,169.96c10.112,7.44,34.144,24.808,55.584,38.04H272v-8h-16v8h-16   v-8h-16v8h-31.584C213.856,194.768,237.888,177.4,248,169.96z" data-original="#333333" class="active-path" data-old_color="#F3F1F1"/>
	<path style="fill:#F6F6F6" d="M376,352h-14.912c-30.776-8.32-107.72-62.008-108.496-62.552L248,286.232l-4.584,3.208   c-0.784,0.552-77.712,54.24-108.496,62.552H120v16h256V352z M272,336v16h-16v-16h-16v16h-16v-16h-16v16h-34.168   c29.048-15.728,62.128-38,74.168-46.272C260.048,314,293.12,336.272,322.168,352H288v-16H272z" data-original="#333333" class="active-path" data-old_color="#F3F1F1"/>
	<rect x="240" y="176" style="fill:#F6F6F6" width="16" height="16" data-original="#333333" class="active-path" data-old_color="#F3F1F1"/>
	<rect x="240" y="312" style="fill:#F6F6F6" width="16" height="16" data-original="#333333" class="active-path" data-old_color="#F3F1F1"/>
</g></g> </svg>
